<?xml version='1.0' encoding='utf-8'?>
<!DOCTYPE svg PUBLIC '-//W3C//DTD SVG 1.1//EN' 'http://www.w3.org/Graphics/SVG/1.1/DTD/svg11.dtd'>
<svg version="1.1" xmlns="http://www.w3.org/2000/svg" viewBox="0 0 512 512" xmlns:xlink="http://www.w3.org/1999/xlink" enable-background="new 0 0 512 512">
<rect width="100%" height="100%" fill="#ED7602"/>
<g transform="translate(50.000000,260.000000) scale(0.04200,-0.04200)">
  <path style="fill:#ffffff;" d="M4946.6,4784.8c-18.4-18.4-24.5-269.7-24.5-1001.2c0-537.4,4.1-976.7,8.2-976.7c4.1,0,77.6,32.7,161.4,71.5c286.1,128.7,619.1,230.9,939.9,286.1l75.6,12.3v790.7c0,590.5-6.1,798.9-24.5,817.3C6047.9,4819.6,4981.3,4819.6,4946.6,4784.8z"/>
  <path style="fill:#ffffff;" d="M3348.8,3440.4c-40.9-40.9-40.9-67.4-40.9-1209.6V1060l128.7,241.1c232.9,441.3,535.3,813.2,894.9,1099.3l181.8,145.1v427c0,400.5-2,429.1-40.9,467.9c-38.8,38.8-67.4,40.9-561.9,40.9C3416.2,3481.2,3387.6,3479.2,3348.8,3440.4z"/>
  <path style="fill:#ffffff;" d="M6372.8,2997c-874.5-63.3-1548.8-367.8-2157.7-976.7c-486.3-484.3-788.7-1040-919.5-1681.6c-40.9-206.4-32.7-247.2,55.2-273.8c83.8-26.6,3128.2-282,3158.8-265.6c26.6,16.4,1810.3,2554.1,1830.7,2603.1c24.5,67.4-30.6,116.5-247.2,228.8c-286.1,145.1-490.4,220.7-782.6,286.1c-198.2,45-717.2,102.2-815.3,89.9C6479,3005.2,6423.8,3001.1,6372.8,2997z"/>
  <path style="fill:#ffffff;" d="M8534.5,2271.6c-51.1-42.9-1759.2-2494.8-1767.4-2539.8c-4.1-22.5,4.1-55.2,18.4-73.5c42.9-55.2,2494.8-1761.3,2541.8-1771.5c138.9-26.6,457.7,733.5,537.4,1272.9c104.2,719.2-24.5,1479.3-353.5,2080c-185.9,345.3-533.3,770.3-794.8,978.7C8608.1,2302.3,8583.6,2310.5,8534.5,2271.6z"/>
  <path style="fill:#ffffff;" d="M132.7,2100c-28.6-28.6-32.7-235-32.7-1961.5c0-1902.3,0-1928.8,40.9-1969.7c38.8-38.8,67.4-40.9,561.9-40.9c494.5,0,523.1,2.1,561.9,40.9c40.9,40.9,40.9,67.4,40.9,1957.4c0,1700-4.1,1920.6-32.7,1961.5c-30.6,45-36.8,45-570.1,45C241,2132.7,159.3,2128.6,132.7,2100z"/>
  <path style="fill:#ffffff;" d="M1759.1,1446.2l-45-30.6V-196.6v-1612.1l45-30.6c67.4-49,1027.7-49,1095.2,0l45,30.6v1612.1v1612.1l-45,30.6c-38.8,26.6-126.7,32.7-547.6,32.7C1885.8,1478.9,1797.9,1472.7,1759.1,1446.2z"/>
  <path style="fill:#ffffff;" d="M3267-190.5c-45-32.7-47-40.9-34.7-300.3c49-1154.4,725.4-2231.2,1751.1-2785c335.1-181.8,788.7-324.9,1191.2-373.9c312.6-40.9,279.9-230.9,279.9,1597.8c0,1522.2,0,1548.8-40.9,1589.6c-22.5,22.5-65.4,40.9-96,40.9c-61.3,0-2842.1,239.1-2940.2,253.4C3338.5-161.9,3293.6-172.1,3267-190.5z"/>
  <path style="fill:#ffffff;" d="M7153.3-1598.3l-45-30.7v-1448.7c0-1614.2-10.2-1512,143-1512c134.8,0,537.4,77.6,747.8,143c306.5,98.1,737.6,318.7,988.9,506.7c267.7,202.3,633.4,576.2,633.4,647.7c0,61.3,51.1,24.5-1240.3,925.6C7402.6-1680,7235-1565.6,7210.5-1565.6C7204.4-1565.6,7177.8-1579.9,7153.3-1598.3z"/>
</g>
  <!--<g transform="translate(40.000000,240.000000) scale(0.4,-0.4)">
    <path  style="fill:#444444;" d="m501,328.1c0-68.7-60.2-126.4-140.6-140.1 3.4-11.3 5.1-22.5 5.1-33.8 0-78.8-79.3-143.2-177.3-143.2s-177.2,64.4-177.2,143.2c0,35.8 15.6,68.5 44.8,95.1l-32.3,77.7 98-39.9c9.5,2.9 19.5,5.2 30,7.1-3.3,10.9-5,22.2-5,33.8 0,78.8 79.2,143.2 177.2,143.2 22.9,0 44.8-3.1 66.7-10.2l98,39.9-32.3-77.7c29.3-26.5 44.9-60.3 44.9-95.1zm-379.5-62.4l-59.4,23.5 18.8-45c0,0-49-33.1-49-89 0-67.5 69.9-122.8 156.4-122.8s156.4,55.2 158.5,121.7c0,11.1-2,21.3-5.1,31.4-5.9-0.5-11.8-0.7-17.8-0.7-74.6,0-138.2,37.3-164.4,89.8-12-1-38-8.9-38-8.9zm268.9,174c-19.9,8-43.7,12.2-65.6,12.2-86.5,0-156.4-55.2-156.4-122.8 0-67.5 69.9-122.8 156.4-122.8s156.4,55.2 156.4,122.8c0,55.7-49,89-49,89l18.8,45-60.6-23.4z"/>
  </g>-->
</svg>
